<svg xmlns="http://www.w3.org/2000/svg" version="1.1" xmlns:xlink="http://www.w3.org/1999/xlink" xmlns:svgjs="http://svgjs.dev/svgjs" viewBox="0 0 2400 800" opacity="0.22"><defs><linearGradient x1="50%" y1="0%" x2="50%" y2="100%" id="sssurf-grad"><stop stop-color="hsl(208, 77%, 50%)" stop-opacity="1" offset="0%"></stop><stop stop-color="hsl(208, 74%, 93%)" stop-opacity="1" offset="100%"></stop></linearGradient></defs><g fill="url(#sssurf-grad)" transform="matrix(1,0,0,1,5.82373046875,186.70172119140625)"><path d="M-10,10C75.41666666666666,22.291666666666668,231.25,76.08333333333333,400,69C568.75,61.916666666666664,633.3333333333333,-25.875,800,-24C966.6666666666667,-22.125,1033.3333333333333,91.125,1200,78C1366.6666666666667,64.875,1433.3333333333333,-75.125,1600,-87C1766.6666666666667,-98.875,1833.3333333333333,18.083333333333332,2000,21C2166.6666666666665,23.916666666666668,2264.5833333333335,-151.95833333333331,2400,-73C2535.4166666666665,5.958333333333329,3254.1666666666665,197.29166666666669,2650,400C2045.8333333333335,602.7083333333333,156.25,795.8333333333334,-500,900" transform="matrix(1,0,0,1,0,60)" opacity="0.05"></path><path d="M-10,10C75.41666666666666,22.291666666666668,231.25,76.08333333333333,400,69C568.75,61.916666666666664,633.3333333333333,-25.875,800,-24C966.6666666666667,-22.125,1033.3333333333333,91.125,1200,78C1366.6666666666667,64.875,1433.3333333333333,-75.125,1600,-87C1766.6666666666667,-98.875,1833.3333333333333,18.083333333333332,2000,21C2166.6666666666665,23.916666666666668,2264.5833333333335,-151.95833333333331,2400,-73C2535.4166666666665,5.958333333333329,3254.1666666666665,197.29166666666669,2650,400C2045.8333333333335,602.7083333333333,156.25,795.8333333333334,-500,900" transform="matrix(1,0,0,1,0,120)" opacity="0.24"></path><path d="M-10,10C75.41666666666666,22.291666666666668,231.25,76.08333333333333,400,69C568.75,61.916666666666664,633.3333333333333,-25.875,800,-24C966.6666666666667,-22.125,1033.3333333333333,91.125,1200,78C1366.6666666666667,64.875,1433.3333333333333,-75.125,1600,-87C1766.6666666666667,-98.875,1833.3333333333333,18.083333333333332,2000,21C2166.6666666666665,23.916666666666668,2264.5833333333335,-151.95833333333331,2400,-73C2535.4166666666665,5.958333333333329,3254.1666666666665,197.29166666666669,2650,400C2045.8333333333335,602.7083333333333,156.25,795.8333333333334,-500,900" transform="matrix(1,0,0,1,0,180)" opacity="0.43"></path><path d="M-10,10C75.41666666666666,22.291666666666668,231.25,76.08333333333333,400,69C568.75,61.916666666666664,633.3333333333333,-25.875,800,-24C966.6666666666667,-22.125,1033.3333333333333,91.125,1200,78C1366.6666666666667,64.875,1433.3333333333333,-75.125,1600,-87C1766.6666666666667,-98.875,1833.3333333333333,18.083333333333332,2000,21C2166.6666666666665,23.916666666666668,2264.5833333333335,-151.95833333333331,2400,-73C2535.4166666666665,5.958333333333329,3254.1666666666665,197.29166666666669,2650,400C2045.8333333333335,602.7083333333333,156.25,795.8333333333334,-500,900" transform="matrix(1,0,0,1,0,240)" opacity="0.62"></path><path d="M-10,10C75.41666666666666,22.291666666666668,231.25,76.08333333333333,400,69C568.75,61.916666666666664,633.3333333333333,-25.875,800,-24C966.6666666666667,-22.125,1033.3333333333333,91.125,1200,78C1366.6666666666667,64.875,1433.3333333333333,-75.125,1600,-87C1766.6666666666667,-98.875,1833.3333333333333,18.083333333333332,2000,21C2166.6666666666665,23.916666666666668,2264.5833333333335,-151.95833333333331,2400,-73C2535.4166666666665,5.958333333333329,3254.1666666666665,197.29166666666669,2650,400C2045.8333333333335,602.7083333333333,156.25,795.8333333333334,-500,900" transform="matrix(1,0,0,1,0,300)" opacity="0.81"></path><path d="M-10,10C75.41666666666666,22.291666666666668,231.25,76.08333333333333,400,69C568.75,61.916666666666664,633.3333333333333,-25.875,800,-24C966.6666666666667,-22.125,1033.3333333333333,91.125,1200,78C1366.6666666666667,64.875,1433.3333333333333,-75.125,1600,-87C1766.6666666666667,-98.875,1833.3333333333333,18.083333333333332,2000,21C2166.6666666666665,23.916666666666668,2264.5833333333335,-151.95833333333331,2400,-73C2535.4166666666665,5.958333333333329,3254.1666666666665,197.29166666666669,2650,400C2045.8333333333335,602.7083333333333,156.25,795.8333333333334,-500,900" transform="matrix(1,0,0,1,0,360)" opacity="1.00"></path></g></svg>